<svg xmlns="http://www.w3.org/2000/svg" viewBox="0 0 284 284" fill="currentColor"><path d="M141.61 86.0098C110.95 86.0098 86.01 110.95 86.01 141.61C86.01 172.27 110.95 197.21 141.61 197.21C172.27 197.21 197.21 172.27 197.21 141.61C197.21 110.95 172.27 86.0098 141.61 86.0098ZM141.61 185.21C117.57 185.21 98.01 165.65 98.01 141.61C98.01 117.57 117.57 98.0098 141.61 98.0098C165.65 98.0098 185.21 117.57 185.21 141.61C185.21 165.65 165.65 185.21 141.61 185.21Z" fill="currentColor"/><path d="M141.61 66.74C144.92 66.74 147.61 64.05 147.61 60.74V6C147.61 2.69 144.92 0 141.61 0C138.3 0 135.61 2.69 135.61 6V60.74C135.61 64.05 138.3 66.74 141.61 66.74Z" fill="currentColor"/><path d="M141.61 216.48C138.3 216.48 135.61 219.17 135.61 222.48V277.22C135.61 280.53 138.3 283.22 141.61 283.22C144.92 283.22 147.61 280.53 147.61 277.22V222.48C147.61 219.17 144.92 216.48 141.61 216.48Z" fill="currentColor"/><path d="M66.74 141.61C66.74 138.3 64.05 135.61 60.74 135.61H6C2.69 135.61 0 138.3 0 141.61C0 144.92 2.69 147.61 6 147.61H60.74C64.05 147.61 66.74 144.92 66.74 141.61Z" fill="currentColor"/><path d="M277.22 135.61H222.48C219.17 135.61 216.48 138.3 216.48 141.61C216.48 144.92 219.17 147.61 222.48 147.61H277.22C280.53 147.61 283.22 144.92 283.22 141.61C283.22 138.3 280.54 135.61 277.22 135.61Z" fill="currentColor"/><path d="M80.1801 88.6701C81.3501 89.8401 82.8901 90.4301 84.4201 90.4301C85.9601 90.4301 87.4901 89.8401 88.6601 88.6701C91.0001 86.3301 91.0001 82.5301 88.6601 80.1801L49.9601 41.4801C47.6201 39.1401 43.8201 39.1401 41.4801 41.4801C39.1401 43.8201 39.1401 47.6201 41.4801 49.9701L80.1801 88.6701Z" fill="currentColor"/><path d="M203.04 194.55C200.7 192.21 196.9 192.21 194.56 194.55C192.22 196.89 192.22 200.69 194.56 203.04L233.27 241.75C234.44 242.92 235.98 243.51 237.51 243.51C239.04 243.51 240.58 242.92 241.75 241.75C244.09 239.41 244.09 235.61 241.75 233.26L203.04 194.55Z" fill="currentColor"/><path d="M80.1801 194.55L41.4701 233.26C39.1301 235.6 39.1301 239.4 41.4701 241.75C42.6401 242.92 44.1801 243.51 45.7101 243.51C47.2401 243.51 48.7801 242.92 49.9501 241.75L88.6601 203.04C91.0001 200.7 91.0001 196.9 88.6601 194.55C86.3301 192.21 82.5301 192.21 80.1801 194.55Z" fill="currentColor"/><path d="M198.8 90.4298C200.34 90.4298 201.87 89.8398 203.04 88.6698L241.75 49.9598C244.09 47.6198 244.09 43.8198 241.75 41.4698C239.41 39.1298 235.61 39.1298 233.27 41.4698L194.56 80.1798C192.22 82.5198 192.22 86.3198 194.56 88.6698C195.72 89.8398 197.26 90.4298 198.8 90.4298Z" fill="currentColor"/></svg>