<svg xmlns="http://www.w3.org/2000/svg" viewBox="0 0 329 284" fill="currentColor"><path d="M141.61 66.74C144.92 66.74 147.61 64.05 147.61 60.74V6C147.61 2.69 144.92 0 141.61 0C138.3 0 135.61 2.69 135.61 6V60.74C135.61 64.05 138.3 66.74 141.61 66.74Z" fill="currentColor"/><path d="M66.74 141.61C66.74 138.3 64.05 135.61 60.74 135.61H6C2.69 135.61 0 138.3 0 141.61C0 144.92 2.69 147.61 6 147.61H60.74C64.05 147.61 66.74 144.92 66.74 141.61Z" fill="currentColor"/><path d="M80.1801 88.6701C81.3501 89.8401 82.8901 90.4301 84.4201 90.4301C85.9601 90.4301 87.4901 89.8401 88.6601 88.6701C91.0001 86.3301 91.0001 82.5301 88.6601 80.1801L49.9601 41.4801C47.6201 39.1401 43.8201 39.1401 41.4801 41.4801C39.1401 43.8201 39.1401 47.6201 41.4801 49.9701L80.1801 88.6701Z" fill="currentColor"/><path d="M80.1798 194.55L41.4698 233.26C39.1298 235.6 39.1298 239.4 41.4698 241.75C42.6398 242.92 44.1798 243.51 45.7098 243.51C47.2398 243.51 48.7798 242.92 49.9498 241.75L88.6598 203.04C90.9998 200.7 90.9998 196.9 88.6598 194.55C86.3298 192.21 82.5298 192.21 80.1798 194.55Z" fill="currentColor"/><path d="M198.8 90.4298C200.34 90.4298 201.87 89.8398 203.04 88.6698L241.75 49.9598C244.09 47.6198 244.09 43.8198 241.75 41.4698C239.41 39.1298 235.61 39.1298 233.27 41.4698L194.56 80.1798C192.22 82.5198 192.22 86.3198 194.56 88.6698C195.72 89.8398 197.26 90.4298 198.8 90.4298Z" fill="currentColor"/><path d="M297.01 172.95C298.69 161.56 295.08 149.97 286.87 141.42C277.58 131.74 263.58 127.67 250.67 130.51C237.52 106.43 208.68 95.18 182.63 104.11C172.1 92.57 157.4 86.02 141.61 86.02C110.95 86.02 86.0098 110.96 86.0098 141.62C86.0098 164.11 99.5198 184.09 119.7 192.73C116.77 198.23 115.1 204.51 115.1 211.16C115.1 226.04 123.4 239.01 135.62 245.69V277.23C135.62 280.54 138.31 283.23 141.62 283.23C144.93 283.23 147.62 280.54 147.62 277.23V249.9C149.73 250.27 151.9 250.48 154.11 250.5C154.15 250.5 154.2 250.5 154.24 250.5H289.5C311.08 250.5 328.63 232.94 328.63 211.37C328.63 192.34 315.01 176.45 297.01 172.95ZM98.0098 141.61C98.0098 117.57 117.57 98.01 141.61 98.01C152.72 98.01 163.15 102.14 171.14 109.53C149.88 122.68 139.69 148.51 146.32 172.66C139 174.2 132.42 177.79 127.21 182.79C109.86 176.73 98.0098 160.27 98.0098 141.61ZM289.5 238.49H154.43C139.36 238.49 127.09 226.23 127.09 211.15C127.09 196.08 139.35 183.81 154.43 183.81C157.74 183.81 160.43 181.12 160.43 177.81V177.67C160.43 176.86 160.26 176.05 159.94 175.3C150.31 152.89 160.54 126.86 182.74 116.94C183.07 116.83 183.4 116.69 183.71 116.51C206.25 107.06 232.32 117.56 241.99 140.06C243.26 143.02 246.64 144.45 249.65 143.3C259.3 139.61 271.04 142.25 278.22 149.73C285.03 156.82 287.2 166.96 283.89 176.21C283.23 178.05 283.51 180.09 284.63 181.69C285.75 183.29 287.58 184.24 289.54 184.24C304.48 184.24 316.64 196.41 316.64 211.36C316.63 226.32 304.46 238.49 289.5 238.49Z" fill="currentColor"/></svg>